<svg width="1920" height="1080" xmlns="http://www.w3.org/2000/svg" xmlns:xlink="http://www.w3.org/1999/xlink" overflow="hidden"><defs><clipPath id="clip0"><rect x="0" y="0" width="1920" height="1080"/></clipPath><linearGradient x1="498.516" y1="-280.415" x2="1421.48" y2="1360.42" gradientUnits="userSpaceOnUse" spreadMethod="reflect" id="fill1"><stop offset="0" stop-color="#4D7284"/><stop offset="0.00671141" stop-color="#4E7385"/><stop offset="0.0134228" stop-color="#507486"/><stop offset="0.0201342" stop-color="#527687"/><stop offset="0.0268456" stop-color="#547789"/><stop offset="0.033557" stop-color="#56798A"/><stop offset="0.0402685" stop-color="#587A8B"/><stop offset="0.0469799" stop-color="#597C8C"/><stop offset="0.0536913" stop-color="#5B7D8E"/><stop offset="0.0604027" stop-color="#5D7F8F"/><stop offset="0.0671141" stop-color="#5F8090"/><stop offset="0.0738255" stop-color="#618191"/><stop offset="0.0805369" stop-color="#628393"/><stop offset="0.0872483" stop-color="#648494"/><stop offset="0.0939597" stop-color="#668595"/><stop offset="0.100671" stop-color="#688796"/><stop offset="0.107383" stop-color="#698897"/><stop offset="0.114094" stop-color="#6B8998"/><stop offset="0.120805" stop-color="#6D8B9A"/><stop offset="0.127517" stop-color="#6E8C9B"/><stop offset="0.134228" stop-color="#708D9C"/><stop offset="0.14094" stop-color="#728F9D"/><stop offset="0.147651" stop-color="#73909E"/><stop offset="0.154362" stop-color="#75919F"/><stop offset="0.161074" stop-color="#7793A0"/><stop offset="0.167785" stop-color="#7894A2"/><stop offset="0.174497" stop-color="#7A95A3"/><stop offset="0.181208" stop-color="#7B96A4"/><stop offset="0.187919" stop-color="#7D98A5"/><stop offset="0.194631" stop-color="#7F99A6"/><stop offset="0.201342" stop-color="#809AA7"/><stop offset="0.208054" stop-color="#829BA8"/><stop offset="0.214765" stop-color="#839DA9"/><stop offset="0.221477" stop-color="#859EAA"/><stop offset="0.228188" stop-color="#869FAB"/><stop offset="0.234899" stop-color="#88A0AC"/><stop offset="0.241611" stop-color="#89A1AD"/><stop offset="0.248322" stop-color="#8BA2AE"/><stop offset="0.255034" stop-color="#8CA4AF"/><stop offset="0.261745" stop-color="#8EA5B0"/><stop offset="0.268456" stop-color="#8FA6B1"/><stop offset="0.275168" stop-color="#90A7B2"/><stop offset="0.281879" stop-color="#92A8B3"/><stop offset="0.288591" stop-color="#93A9B4"/><stop offset="0.295302" stop-color="#95AAB5"/><stop offset="0.302013" stop-color="#96ABB6"/><stop offset="0.308725" stop-color="#97ACB7"/><stop offset="0.315436" stop-color="#99AEB8"/><stop offset="0.322148" stop-color="#9AAFB9"/><stop offset="0.328859" stop-color="#9BB0BA"/><stop offset="0.33557" stop-color="#9DB1BB"/><stop offset="0.342282" stop-color="#9EB2BC"/><stop offset="0.348993" stop-color="#9FB3BC"/><stop offset="0.355705" stop-color="#A1B4BD"/><stop offset="0.362416" stop-color="#A2B5BE"/><stop offset="0.369128" stop-color="#A3B6BF"/><stop offset="0.375839" stop-color="#A5B7C0"/><stop offset="0.38255" stop-color="#A6B8C1"/><stop offset="0.389262" stop-color="#A7B9C2"/><stop offset="0.395973" stop-color="#A8BAC2"/><stop offset="0.402685" stop-color="#A9BBC3"/><stop offset="0.409396" stop-color="#ABBCC4"/><stop offset="0.416107" stop-color="#ACBCC5"/><stop offset="0.422819" stop-color="#ADBDC6"/><stop offset="0.42953" stop-color="#AEBEC7"/><stop offset="0.436242" stop-color="#AFBFC7"/><stop offset="0.442953" stop-color="#B0C0C8"/><stop offset="0.449664" stop-color="#B2C1C9"/><stop offset="0.456376" stop-color="#B3C2CA"/><stop offset="0.463087" stop-color="#B4C3CA"/><stop offset="0.469799" stop-color="#B5C4CB"/><stop offset="0.47651" stop-color="#B6C4CC"/><stop offset="0.483221" stop-color="#B7C5CD"/><stop offset="0.489933" stop-color="#B8C6CD"/><stop offset="0.496644" stop-color="#B9C7CE"/><stop offset="0.503356" stop-color="#BAC8CF"/><stop offset="0.510067" stop-color="#BBC9CF"/><stop offset="0.516779" stop-color="#BCC9D0"/><stop offset="0.52349" stop-color="#BDCAD1"/><stop offset="0.530201" stop-color="#BECBD2"/><stop offset="0.536913" stop-color="#BFCCD2"/><stop offset="0.543624" stop-color="#C0CCD3"/><stop offset="0.550336" stop-color="#C1CDD3"/><stop offset="0.557047" stop-color="#C2CED4"/><stop offset="0.563758" stop-color="#C3CFD5"/><stop offset="0.57047" stop-color="#C4CFD5"/><stop offset="0.577181" stop-color="#C5D0D6"/><stop offset="0.583893" stop-color="#C6D1D7"/><stop offset="0.590604" stop-color="#C6D1D7"/><stop offset="0.597315" stop-color="#C7D2D8"/><stop offset="0.604027" stop-color="#C8D3D8"/><stop offset="0.610738" stop-color="#C9D3D9"/><stop offset="0.61745" stop-color="#CAD4DA"/><stop offset="0.624161" stop-color="#CBD5DA"/><stop offset="0.630872" stop-color="#CBD5DB"/><stop offset="0.637584" stop-color="#CCD6DB"/><stop offset="0.644295" stop-color="#CDD7DC"/><stop offset="0.651007" stop-color="#CED7DC"/><stop offset="0.657718" stop-color="#CED8DD"/><stop offset="0.66443" stop-color="#CFD8DD"/><stop offset="0.671141" stop-color="#D0D9DE"/><stop offset="0.677852" stop-color="#D1D9DE"/><stop offset="0.684564" stop-color="#D1DADF"/><stop offset="0.691275" stop-color="#D2DADF"/><stop offset="0.697987" stop-color="#D3DBE0"/><stop offset="0.704698" stop-color="#D3DCE0"/><stop offset="0.711409" stop-color="#D4DCE0"/><stop offset="0.718121" stop-color="#D5DDE1"/><stop offset="0.724832" stop-color="#D5DDE1"/><stop offset="0.731544" stop-color="#D6DDE2"/><stop offset="0.738255" stop-color="#D6DEE2"/><stop offset="0.744966" stop-color="#D7DEE3"/><stop offset="0.751678" stop-color="#D7DFE3"/><stop offset="0.758389" stop-color="#D8DFE3"/><stop offset="0.765101" stop-color="#D9E0E4"/><stop offset="0.771812" stop-color="#D9E0E4"/><stop offset="0.778524" stop-color="#DAE1E4"/><stop offset="0.785235" stop-color="#DAE1E5"/><stop offset="0.791946" stop-color="#DBE1E5"/><stop offset="0.798658" stop-color="#DBE2E5"/><stop offset="0.805369" stop-color="#DCE2E6"/><stop offset="0.812081" stop-color="#DCE2E6"/><stop offset="0.818792" stop-color="#DCE3E6"/><stop offset="0.825503" stop-color="#DDE3E7"/><stop offset="0.832215" stop-color="#DDE3E7"/><stop offset="0.838926" stop-color="#DEE4E7"/><stop offset="0.845638" stop-color="#DEE4E7"/><stop offset="0.852349" stop-color="#DEE4E8"/><stop offset="0.85906" stop-color="#DFE5E8"/><stop offset="0.865772" stop-color="#DFE5E8"/><stop offset="0.872483" stop-color="#DFE5E8"/><stop offset="0.879195" stop-color="#E0E5E9"/><stop offset="0.885906" stop-color="#E0E5E9"/><stop offset="0.892617" stop-color="#E0E6E9"/><stop offset="0.899329" stop-color="#E0E6E9"/><stop offset="0.90604" stop-color="#E1E6E9"/><stop offset="0.912752" stop-color="#E1E6E9"/><stop offset="0.919463" stop-color="#E1E6EA"/><stop offset="0.926175" stop-color="#E1E7EA"/><stop offset="0.932886" stop-color="#E2E7EA"/><stop offset="0.939597" stop-color="#E2E7EA"/><stop offset="0.946309" stop-color="#E2E7EA"/><stop offset="0.95302" stop-color="#E2E7EA"/><stop offset="0.959732" stop-color="#E2E7EA"/><stop offset="0.966443" stop-color="#E2E7EA"/><stop offset="0.973154" stop-color="#E2E7EA"/><stop offset="0.979866" stop-color="#E2E7EA"/><stop offset="0.986577" stop-color="#E2E7EA"/><stop offset="0.993289" stop-color="#E2E7EA"/><stop offset="1" stop-color="#E3E8EB"/></linearGradient></defs><g clip-path="url(#clip0)"><rect x="0" y="0" width="1920" height="1080" fill="#F4F4F6"/><rect x="0" y="0" width="1920" height="1080" fill="url(#fill1)"/><rect x="77" y="0" width="1843" height="1080" fill="#FFFFFF"/><path d="M103 325.626C103 320.31 107.31 316 112.626 316L978.374 316C983.69 316 988 320.31 988 325.626L988 673.374C988 678.69 983.69 683 978.374 683L112.626 683C107.31 683 103 678.69 103 673.374Z" fill="#F9F9F9" fill-rule="evenodd"/><path d="M103 85.3397C103 79.077 108.077 74 114.34 74L522.66 74C528.923 74 534 79.077 534 85.3397L534 285.66C534 291.923 528.923 297 522.66 297L114.34 297C108.077 297 103 291.923 103 285.66Z" fill="#F9F9F9" fill-rule="evenodd"/><path d="M557 85.3397C557 79.077 562.077 74 568.34 74L976.66 74C982.923 74 988 79.077 988 85.3397L988 285.66C988 291.923 982.923 297 976.66 297L568.34 297C562.077 297 557 291.923 557 285.66Z" fill="#F9F9F9" fill-rule="evenodd"/><path d="M1011 85.3397C1011 79.077 1016.08 74 1022.34 74L1430.66 74C1436.92 74 1442 79.077 1442 85.3397L1442 285.66C1442 291.923 1436.92 297 1430.66 297L1022.34 297C1016.08 297 1011 291.923 1011 285.66Z" fill="#F9F9F9" fill-rule="evenodd"/><path d="M1465 84.3906C1465 78.0997 1470.1 73 1476.39 73L1885.61 73C1891.9 73 1897 78.0997 1897 84.3906L1897 285.609C1897 291.9 1891.9 297 1885.61 297L1476.39 297C1470.1 297 1465 291.9 1465 285.609Z" fill="#F9F9F9" fill-rule="evenodd"/><path d="M1011 325.626C1011 320.31 1015.31 316 1020.63 316L1887.37 316C1892.69 316 1897 320.31 1897 325.626L1897 673.374C1897 678.69 1892.69 683 1887.37 683L1020.63 683C1015.31 683 1011 678.69 1011 673.374Z" fill="#F9F9F9" fill-rule="evenodd"/><path d="M103 712.233C103 707.134 107.134 703 112.233 703L1237.77 703C1242.87 703 1247 707.134 1247 712.233L1247 1045.77C1247 1050.87 1242.87 1055 1237.77 1055L112.233 1055C107.134 1055 103 1050.87 103 1045.77Z" fill="#F9F9F9" fill-rule="evenodd"/><path d="M1270 712.233C1270 707.134 1274.13 703 1279.23 703L1887.77 703C1892.87 703 1897 707.134 1897 712.233L1897 1045.77C1897 1050.87 1892.87 1055 1887.77 1055L1279.23 1055C1274.13 1055 1270 1050.87 1270 1045.77Z" fill="#F9F9F9" fill-rule="evenodd"/></g></svg>