<svg width="1920" height="1080" xmlns="http://www.w3.org/2000/svg" xmlns:xlink="http://www.w3.org/1999/xlink" overflow="hidden"><defs><filter id="fx0" x="-10%" y="-10%" width="120%" height="120%" filterUnits="userSpaceOnUse" primitiveUnits="userSpaceOnUse"><feComponentTransfer color-interpolation-filters="sRGB"><feFuncR type="discrete" tableValues="0.85098 0.85098"/><feFuncG type="discrete" tableValues="0.85098 0.85098"/><feFuncB type="discrete" tableValues="0.85098 0.85098"/><feFuncA type="linear" slope="1" intercept="0"/></feComponentTransfer><feGaussianBlur stdDeviation="1.77778 1.77778"/></filter><filter id="fx1" x="-10%" y="-10%" width="120%" height="120%" filterUnits="userSpaceOnUse" primitiveUnits="userSpaceOnUse"><feComponentTransfer color-interpolation-filters="sRGB"><feFuncR type="discrete" tableValues="0.85098 0.85098"/><feFuncG type="discrete" tableValues="0.85098 0.85098"/><feFuncB type="discrete" tableValues="0.85098 0.85098"/><feFuncA type="linear" slope="1" intercept="0"/></feComponentTransfer><feGaussianBlur stdDeviation="1.77778 1.77778"/></filter><filter id="fx2" x="-10%" y="-10%" width="120%" height="120%" filterUnits="userSpaceOnUse" primitiveUnits="userSpaceOnUse"><feComponentTransfer color-interpolation-filters="sRGB"><feFuncR type="discrete" tableValues="0.85098 0.85098"/><feFuncG type="discrete" tableValues="0.85098 0.85098"/><feFuncB type="discrete" tableValues="0.85098 0.85098"/><feFuncA type="linear" slope="1" intercept="0"/></feComponentTransfer><feGaussianBlur stdDeviation="1.77778 1.77778"/></filter><filter id="fx3" x="-10%" y="-10%" width="120%" height="120%" filterUnits="userSpaceOnUse" primitiveUnits="userSpaceOnUse"><feComponentTransfer color-interpolation-filters="sRGB"><feFuncR type="discrete" tableValues="0.85098 0.85098"/><feFuncG type="discrete" tableValues="0.85098 0.85098"/><feFuncB type="discrete" tableValues="0.85098 0.85098"/><feFuncA type="linear" slope="1" intercept="0"/></feComponentTransfer><feGaussianBlur stdDeviation="1.77778 1.77778"/></filter><filter id="fx4" x="-10%" y="-10%" width="120%" height="120%" filterUnits="userSpaceOnUse" primitiveUnits="userSpaceOnUse"><feComponentTransfer color-interpolation-filters="sRGB"><feFuncR type="discrete" tableValues="0.85098 0.85098"/><feFuncG type="discrete" tableValues="0.85098 0.85098"/><feFuncB type="discrete" tableValues="0.85098 0.85098"/><feFuncA type="linear" slope="1" intercept="0"/></feComponentTransfer><feGaussianBlur stdDeviation="1.77778 1.77778"/></filter><filter id="fx5" x="-10%" y="-10%" width="120%" height="120%" filterUnits="userSpaceOnUse" primitiveUnits="userSpaceOnUse"><feComponentTransfer color-interpolation-filters="sRGB"><feFuncR type="discrete" tableValues="0.85098 0.85098"/><feFuncG type="discrete" tableValues="0.85098 0.85098"/><feFuncB type="discrete" tableValues="0.85098 0.85098"/><feFuncA type="linear" slope="1" intercept="0"/></feComponentTransfer><feGaussianBlur stdDeviation="1.77778 1.77778"/></filter><filter id="fx6" x="-10%" y="-10%" width="120%" height="120%" filterUnits="userSpaceOnUse" primitiveUnits="userSpaceOnUse"><feComponentTransfer color-interpolation-filters="sRGB"><feFuncR type="discrete" tableValues="0.85098 0.85098"/><feFuncG type="discrete" tableValues="0.85098 0.85098"/><feFuncB type="discrete" tableValues="0.85098 0.85098"/><feFuncA type="linear" slope="1" intercept="0"/></feComponentTransfer><feGaussianBlur stdDeviation="1.77778 1.77778"/></filter><filter id="fx7" x="-10%" y="-10%" width="120%" height="120%" filterUnits="userSpaceOnUse" primitiveUnits="userSpaceOnUse"><feComponentTransfer color-interpolation-filters="sRGB"><feFuncR type="discrete" tableValues="0.85098 0.85098"/><feFuncG type="discrete" tableValues="0.85098 0.85098"/><feFuncB type="discrete" tableValues="0.85098 0.85098"/><feFuncA type="linear" slope="1" intercept="0"/></feComponentTransfer><feGaussianBlur stdDeviation="1.77778 1.77778"/></filter><filter id="fx8" x="-10%" y="-10%" width="120%" height="120%" filterUnits="userSpaceOnUse" primitiveUnits="userSpaceOnUse"><feComponentTransfer color-interpolation-filters="sRGB"><feFuncR type="discrete" tableValues="0.85098 0.85098"/><feFuncG type="discrete" tableValues="0.85098 0.85098"/><feFuncB type="discrete" tableValues="0.85098 0.85098"/><feFuncA type="linear" slope="1" intercept="0"/></feComponentTransfer><feGaussianBlur stdDeviation="1.77778 1.77778"/></filter><clipPath id="clip9"><rect x="0" y="0" width="1920" height="1080"/></clipPath><clipPath id="clip10"><rect x="-2" y="-2" width="469" height="225"/></clipPath><clipPath id="clip11"><rect x="0" y="0" width="467" height="222"/></clipPath><clipPath id="clip12"><rect x="-2" y="-2" width="612" height="358"/></clipPath><clipPath id="clip13"><rect x="0" y="0" width="609" height="354"/></clipPath><clipPath id="clip14"><rect x="-2" y="-2" width="469" height="225"/></clipPath><clipPath id="clip15"><rect x="0" y="0" width="467" height="222"/></clipPath><clipPath id="clip16"><rect x="-2" y="-2" width="471" height="228"/></clipPath><clipPath id="clip17"><rect x="0" y="0" width="468" height="224"/></clipPath><clipPath id="clip18"><rect x="-2" y="-2" width="471" height="228"/></clipPath><clipPath id="clip19"><rect x="0" y="0" width="468" height="224"/></clipPath><clipPath id="clip20"><rect x="-2" y="-2" width="940" height="420"/></clipPath><clipPath id="clip21"><rect x="0" y="0" width="937" height="416"/></clipPath><clipPath id="clip22"><rect x="-2" y="-2" width="942" height="420"/></clipPath><clipPath id="clip23"><rect x="0" y="0" width="940" height="416"/></clipPath><clipPath id="clip24"><rect x="-2" y="-2" width="612" height="358"/></clipPath><clipPath id="clip25"><rect x="0" y="0" width="609" height="354"/></clipPath><clipPath id="clip26"><rect x="-2" y="-2" width="659" height="358"/></clipPath><clipPath id="clip27"><rect x="0" y="0" width="656" height="354"/></clipPath></defs><g clip-path="url(#clip9)"><rect x="0" y="0" width="1920" height="1080" fill="#F7F7F7"/><rect x="0" y="0" width="1920" height="258" fill="#315458"/><g clip-path="url(#clip10)" filter="url(#fx0)" transform="translate(24 66)"><g clip-path="url(#clip11)"><rect x="6.99086" y="6.89217" width="453" height="208" fill="#FFFFFF"/></g></g><rect x="30" y="72" width="453" height="208" fill="#FFFFFF"/><g clip-path="url(#clip12)" filter="url(#fx1)" transform="translate(24 291)"><g clip-path="url(#clip13)"><rect x="6.99086" y="6.89218" width="595" height="340" fill="#FFFFFF"/></g></g><rect x="30" y="297" width="595" height="340" fill="#FFFFFF"/><g clip-path="url(#clip14)" filter="url(#fx2)" transform="translate(494 66)"><g clip-path="url(#clip15)"><rect x="6.99084" y="6.89217" width="453" height="208" fill="#FFFFFF"/></g></g><rect x="500" y="72" width="453" height="208" fill="#FFFFFF"/><g clip-path="url(#clip16)" filter="url(#fx3)" transform="translate(963 64)"><g clip-path="url(#clip17)"><rect x="6.99084" y="6.89217" width="454" height="210" fill="#FFFFFF"/></g></g><rect x="969" y="70" width="454" height="210" fill="#FFFFFF"/><g clip-path="url(#clip18)" filter="url(#fx4)" transform="translate(1435 64)"><g clip-path="url(#clip19)"><rect x="6.99084" y="6.89217" width="454" height="210" fill="#FFFFFF"/></g></g><rect x="1441" y="70" width="454" height="210" fill="#FFFFFF"/><g clip-path="url(#clip20)" filter="url(#fx5)" transform="translate(24 648)"><g clip-path="url(#clip21)"><rect x="6.99086" y="6.89215" width="923" height="402" fill="#FFFFFF"/></g></g><rect x="30" y="654" width="923" height="402" fill="#FFFFFF"/><g clip-path="url(#clip22)" filter="url(#fx6)" transform="translate(963 648)"><g clip-path="url(#clip23)"><rect x="6.99084" y="6.89215" width="926" height="402" fill="#FFFFFF"/></g></g><rect x="969" y="654" width="926" height="402" fill="#FFFFFF"/><g clip-path="url(#clip24)" filter="url(#fx7)" transform="translate(635 291)"><g clip-path="url(#clip25)"><rect x="6.99084" y="6.89218" width="595" height="340" fill="#FFFFFF"/></g></g><rect x="641" y="297" width="595" height="340" fill="#FFFFFF"/><g clip-path="url(#clip26)" filter="url(#fx8)" transform="translate(1247 291)"><g clip-path="url(#clip27)"><rect x="6.99084" y="6.89218" width="642" height="340" fill="#FFFFFF"/></g></g><rect x="1253" y="297" width="642" height="340" fill="#FFFFFF"/></g></svg>