<svg width="1920" height="1080" xmlns="http://www.w3.org/2000/svg" xmlns:xlink="http://www.w3.org/1999/xlink" overflow="hidden"><defs><clipPath id="clip0"><rect x="0" y="0" width="1920" height="1080"/></clipPath></defs><g clip-path="url(#clip0)"><rect x="0" y="0" width="1920" height="1080" fill="#1A1C1E"/><path d="M314 52.365C314 38.3563 325.356 27 339.365 27L1870.63 27C1884.64 27 1896 38.3563 1896 52.365L1896 1030.64C1896 1044.64 1884.64 1056 1870.63 1056L339.365 1056C325.356 1056 314 1044.64 314 1030.64Z" fill="#F1F3F4" fill-rule="evenodd"/><path d="M314 62.2457C314 42.78 329.78 27 349.246 27L1860.75 27C1880.22 27 1896 42.78 1896 62.2457L1896 198.754C1896 218.22 1880.22 234 1860.75 234L349.246 234C329.78 234 314 218.22 314 198.754Z" fill="#FFFFFF" fill-rule="evenodd"/><rect x="314" y="56" width="1582" height="207" fill="#FFFFFF"/><path d="M347 302.458C347 293.368 354.368 286 363.458 286L1074.54 286C1083.63 286 1091 293.368 1091 302.458L1091 600.542C1091 609.632 1083.63 617 1074.54 617L363.458 617C354.368 617 347 609.632 347 600.542Z" fill="#FFFFFF" fill-rule="evenodd"/><path d="M347.5 79.5532C347.5 69.0305 356.03 60.5001 366.553 60.5001L689.447 60.5001C699.97 60.5001 708.5 69.0305 708.5 79.5532L708.5 226.447C708.5 236.97 699.97 245.5 689.447 245.5L366.553 245.5C356.03 245.5 347.5 236.97 347.5 226.447Z" stroke="#D9D9D9" stroke-width="1.33333" stroke-miterlimit="8" fill="#FFFFFF" fill-rule="evenodd"/><path d="M346 657.838C346 646.882 354.882 638 365.838 638L1071.16 638C1082.12 638 1091 646.882 1091 657.838L1091 1017.16C1091 1028.12 1082.12 1037 1071.16 1037L365.838 1037C354.882 1037 346 1028.12 346 1017.16Z" fill="#FFFFFF" fill-rule="evenodd"/><path d="M1112 302.457C1112 293.368 1119.37 286 1128.46 286L1837.54 286C1846.63 286 1854 293.368 1854 302.457L1854 600.543C1854 609.632 1846.63 617 1837.54 617L1128.46 617C1119.37 617 1112 609.632 1112 600.543Z" fill="#FFFFFF" fill-rule="evenodd"/><path d="M1112 657.839C1112 646.882 1120.88 638 1131.84 638L1834.16 638C1845.12 638 1854 646.882 1854 657.839L1854 1017.16C1854 1028.12 1845.12 1037 1834.16 1037L1131.84 1037C1120.88 1037 1112 1028.12 1112 1017.16Z" fill="#FFFFFF" fill-rule="evenodd"/><path d="M730.5 79.5532C730.5 69.0305 739.03 60.5001 749.553 60.5001L1072.45 60.5001C1082.97 60.5001 1091.5 69.0305 1091.5 79.5532L1091.5 226.447C1091.5 236.97 1082.97 245.5 1072.45 245.5L749.553 245.5C739.03 245.5 730.5 236.97 730.5 226.447Z" stroke="#D9D9D9" stroke-width="1.33333" stroke-miterlimit="8" fill="#FFFFFF" fill-rule="evenodd"/><path d="M1112.5 79.4501C1112.5 68.9843 1120.98 60.5001 1131.45 60.5001L1455.55 60.5001C1466.02 60.5001 1474.5 68.9843 1474.5 79.4501L1474.5 225.55C1474.5 236.016 1466.02 244.5 1455.55 244.5L1131.45 244.5C1120.98 244.5 1112.5 236.016 1112.5 225.55Z" stroke="#D9D9D9" stroke-width="1.33333" stroke-miterlimit="8" fill="#FFFFFF" fill-rule="evenodd"/><path d="M1492.5 79.5534C1492.5 69.0305 1501.03 60.5001 1511.55 60.5001L1835.45 60.5001C1845.97 60.5001 1854.5 69.0305 1854.5 79.5534L1854.5 226.447C1854.5 236.97 1845.97 245.5 1835.45 245.5L1511.55 245.5C1501.03 245.5 1492.5 236.97 1492.5 226.447Z" stroke="#D9D9D9" stroke-width="1.33333" stroke-miterlimit="8" fill="#FFFFFF" fill-rule="evenodd"/></g></svg>