<svg width="1280" height="720" xmlns="http://www.w3.org/2000/svg" xmlns:xlink="http://www.w3.org/1999/xlink" overflow="hidden"><defs><clipPath id="clip0"><rect x="0" y="0" width="1280" height="720"/></clipPath></defs><g clip-path="url(#clip0)"><rect x="0" y="0" width="1280" height="720" fill="#FFFFFF"/><path d="M484.5 35.9785C484.5 31.8483 487.848 28.5001 491.978 28.5001L729.022 28.5001C733.152 28.5001 736.5 31.8483 736.5 35.9785L736.5 191.022C736.5 195.152 733.152 198.5 729.022 198.5L491.978 198.5C487.848 198.5 484.5 195.152 484.5 191.022Z" stroke="#D9D9D9" stroke-width="0.333333" stroke-miterlimit="8" fill="#FFFFFF" fill-rule="evenodd"/><path d="M748.5 34.4382C748.5 31.1587 751.159 28.5001 754.438 28.5001L994.562 28.5001C997.841 28.5001 1000.5 31.1587 1000.5 34.4382L1000.5 192.562C1000.5 195.841 997.841 198.5 994.562 198.5L754.438 198.5C751.159 198.5 748.5 195.841 748.5 192.562Z" stroke="#D9D9D9" stroke-width="0.333333" stroke-miterlimit="8" fill="#FFFFFF" fill-rule="evenodd"/><path d="M1012.5 35.2082C1012.5 31.5034 1015.5 28.5001 1019.21 28.5001L1257.79 28.5001C1261.5 28.5001 1264.5 31.5034 1264.5 35.2082L1264.5 191.792C1264.5 195.497 1261.5 198.5 1257.79 198.5L1019.21 198.5C1015.5 198.5 1012.5 195.497 1012.5 191.792Z" stroke="#D9D9D9" stroke-width="0.333333" stroke-miterlimit="8" fill="#FFFFFF" fill-rule="evenodd"/><path d="M221.5 35.2082C221.5 31.5034 224.503 28.5001 228.208 28.5001L465.792 28.5001C469.497 28.5001 472.5 31.5034 472.5 35.2082L472.5 191.792C472.5 195.497 469.497 198.5 465.792 198.5L228.208 198.5C224.503 198.5 221.5 195.497 221.5 191.792Z" stroke="#D9D9D9" stroke-width="0.333333" stroke-miterlimit="8" fill="#FFFFFF" fill-rule="evenodd"/><rect x="0" y="0" width="208" height="720" fill="#F4F5F7"/><path d="M221.5 222.891C221.5 217.705 225.705 213.5 230.891 213.5L463.109 213.5C468.295 213.5 472.5 217.705 472.5 222.891L472.5 442.109C472.5 447.295 468.295 451.5 463.109 451.5L230.891 451.5C225.705 451.5 221.5 447.295 221.5 442.109Z" stroke="#D9D9D9" stroke-width="0.333333" stroke-miterlimit="8" fill="#FFFFFF" fill-rule="evenodd"/><path d="M221.5 475.892C221.5 470.705 225.705 466.5 230.892 466.5L727.109 466.5C732.295 466.5 736.5 470.705 736.5 475.892L736.5 695.109C736.5 700.295 732.295 704.5 727.109 704.5L230.892 704.5C225.705 704.5 221.5 700.295 221.5 695.109Z" stroke="#D9D9D9" stroke-width="0.333333" stroke-miterlimit="8" fill="#FFFFFF" fill-rule="evenodd"/><path d="M748.5 475.892C748.5 470.705 752.705 466.5 757.892 466.5L1255.11 466.5C1260.3 466.5 1264.5 470.705 1264.5 475.892L1264.5 695.108C1264.5 700.295 1260.3 704.5 1255.11 704.5L757.892 704.5C752.705 704.5 748.5 700.295 748.5 695.108Z" stroke="#D9D9D9" stroke-width="0.333333" stroke-miterlimit="8" fill="#FFFFFF" fill-rule="evenodd"/><path d="M748.5 222.892C748.5 217.705 752.705 213.5 757.892 213.5L1255.11 213.5C1260.3 213.5 1264.5 217.705 1264.5 222.892L1264.5 442.108C1264.5 447.295 1260.3 451.5 1255.11 451.5L757.892 451.5C752.705 451.5 748.5 447.295 748.5 442.108Z" stroke="#D9D9D9" stroke-width="0.333333" stroke-miterlimit="8" fill="#FFFFFF" fill-rule="evenodd"/><path d="M484.5 222.892C484.5 217.705 488.705 213.5 493.892 213.5L727.108 213.5C732.295 213.5 736.5 217.705 736.5 222.892L736.5 442.108C736.5 447.295 732.295 451.5 727.108 451.5L493.892 451.5C488.705 451.5 484.5 447.295 484.5 442.108Z" stroke="#D9D9D9" stroke-width="0.333333" stroke-miterlimit="8" fill="#FFFFFF" fill-rule="evenodd"/></g></svg>