<svg width="1920" height="1080" xmlns="http://www.w3.org/2000/svg" xmlns:xlink="http://www.w3.org/1999/xlink" overflow="hidden"><defs><clipPath id="clip0"><rect x="0" y="0" width="1920" height="1080"/></clipPath><linearGradient x1="317.5" y1="82.8334" x2="317.5" y2="292.167" gradientUnits="userSpaceOnUse" spreadMethod="reflect" id="stroke1"><stop offset="0" stop-color="#F6F8FC"/><stop offset="0.111111" stop-color="#F5F7FB"/><stop offset="0.222222" stop-color="#F5F7FB"/><stop offset="0.333333" stop-color="#F5F7FA"/><stop offset="0.444444" stop-color="#F5F6F9"/><stop offset="0.555556" stop-color="#F4F6F8"/><stop offset="0.666667" stop-color="#F4F5F7"/><stop offset="0.777778" stop-color="#F3F4F5"/><stop offset="0.888889" stop-color="#F2F3F3"/><stop offset="1" stop-color="#F2F2F2"/></linearGradient><linearGradient x1="428" y1="308.833" x2="428" y2="672.167" gradientUnits="userSpaceOnUse" spreadMethod="reflect" id="stroke2"><stop offset="0" stop-color="#F6F8FC"/><stop offset="0.111111" stop-color="#F5F7FB"/><stop offset="0.222222" stop-color="#F5F7FB"/><stop offset="0.333333" stop-color="#F5F7FA"/><stop offset="0.444444" stop-color="#F5F6F9"/><stop offset="0.555556" stop-color="#F4F6F8"/><stop offset="0.666667" stop-color="#F4F5F7"/><stop offset="0.777778" stop-color="#F3F4F5"/><stop offset="0.888889" stop-color="#F2F3F3"/><stop offset="1" stop-color="#F2F2F2"/></linearGradient><linearGradient x1="986.5" y1="686.833" x2="986.5" y2="1050.17" gradientUnits="userSpaceOnUse" spreadMethod="reflect" id="stroke3"><stop offset="0" stop-color="#F6F8FC"/><stop offset="0.111111" stop-color="#F5F7FB"/><stop offset="0.222222" stop-color="#F5F7FB"/><stop offset="0.333333" stop-color="#F5F7FA"/><stop offset="0.444444" stop-color="#F5F6F9"/><stop offset="0.555556" stop-color="#F4F6F8"/><stop offset="0.666667" stop-color="#F4F5F7"/><stop offset="0.777778" stop-color="#F3F4F5"/><stop offset="0.888889" stop-color="#F2F3F3"/><stop offset="1" stop-color="#F2F2F2"/></linearGradient><linearGradient x1="763" y1="82.8334" x2="763" y2="292.167" gradientUnits="userSpaceOnUse" spreadMethod="reflect" id="stroke4"><stop offset="0" stop-color="#F6F8FC"/><stop offset="0.111111" stop-color="#F5F7FB"/><stop offset="0.222222" stop-color="#F5F7FB"/><stop offset="0.333333" stop-color="#F5F7FA"/><stop offset="0.444444" stop-color="#F5F6F9"/><stop offset="0.555556" stop-color="#F4F6F8"/><stop offset="0.666667" stop-color="#F4F5F7"/><stop offset="0.777778" stop-color="#F3F4F5"/><stop offset="0.888889" stop-color="#F2F3F3"/><stop offset="1" stop-color="#F2F2F2"/></linearGradient><linearGradient x1="1208.5" y1="82.8334" x2="1208.5" y2="292.167" gradientUnits="userSpaceOnUse" spreadMethod="reflect" id="stroke5"><stop offset="0" stop-color="#F6F8FC"/><stop offset="0.111111" stop-color="#F5F7FB"/><stop offset="0.222222" stop-color="#F5F7FB"/><stop offset="0.333333" stop-color="#F5F7FA"/><stop offset="0.444444" stop-color="#F5F6F9"/><stop offset="0.555556" stop-color="#F4F6F8"/><stop offset="0.666667" stop-color="#F4F5F7"/><stop offset="0.777778" stop-color="#F3F4F5"/><stop offset="0.888889" stop-color="#F2F3F3"/><stop offset="1" stop-color="#F2F2F2"/></linearGradient><linearGradient x1="1653.5" y1="82.8334" x2="1653.5" y2="292.167" gradientUnits="userSpaceOnUse" spreadMethod="reflect" id="stroke6"><stop offset="0" stop-color="#F6F8FC"/><stop offset="0.111111" stop-color="#F5F7FB"/><stop offset="0.222222" stop-color="#F5F7FB"/><stop offset="0.333333" stop-color="#F5F7FA"/><stop offset="0.444444" stop-color="#F5F6F9"/><stop offset="0.555556" stop-color="#F4F6F8"/><stop offset="0.666667" stop-color="#F4F5F7"/><stop offset="0.777778" stop-color="#F3F4F5"/><stop offset="0.888889" stop-color="#F2F3F3"/><stop offset="1" stop-color="#F2F2F2"/></linearGradient><linearGradient x1="1653" y1="308.833" x2="1653" y2="672.167" gradientUnits="userSpaceOnUse" spreadMethod="reflect" id="stroke7"><stop offset="0" stop-color="#F6F8FC"/><stop offset="0.111111" stop-color="#F5F7FB"/><stop offset="0.222222" stop-color="#F5F7FB"/><stop offset="0.333333" stop-color="#F5F7FA"/><stop offset="0.444444" stop-color="#F5F6F9"/><stop offset="0.555556" stop-color="#F4F6F8"/><stop offset="0.666667" stop-color="#F4F5F7"/><stop offset="0.777778" stop-color="#F3F4F5"/><stop offset="0.888889" stop-color="#F2F3F3"/><stop offset="1" stop-color="#F2F2F2"/></linearGradient><linearGradient x1="1095" y1="308.833" x2="1095" y2="672.167" gradientUnits="userSpaceOnUse" spreadMethod="reflect" id="stroke8"><stop offset="0" stop-color="#F6F8FC"/><stop offset="0.111111" stop-color="#F5F7FB"/><stop offset="0.222222" stop-color="#F5F7FB"/><stop offset="0.333333" stop-color="#F5F7FA"/><stop offset="0.444444" stop-color="#F5F6F9"/><stop offset="0.555556" stop-color="#F4F6F8"/><stop offset="0.666667" stop-color="#F4F5F7"/><stop offset="0.777778" stop-color="#F3F4F5"/><stop offset="0.888889" stop-color="#F2F3F3"/><stop offset="1" stop-color="#F2F2F2"/></linearGradient></defs><g clip-path="url(#clip0)"><rect x="0" y="0" width="1920" height="1080" fill="#F6F7FB"/><path d="M103.5 87.8929C103.5 85.4668 105.467 83.5001 107.893 83.5001L527.107 83.5001C529.533 83.5001 531.5 85.4668 531.5 87.8929L531.5 287.107C531.5 289.533 529.533 291.5 527.107 291.5L107.893 291.5C105.467 291.5 103.5 289.533 103.5 287.107Z" stroke="url(#stroke1)" stroke-width="1.33333" stroke-miterlimit="8" fill="#FFFFFF" fill-rule="evenodd"/><rect x="0" y="0" width="64" height="1080" fill="#333A44"/><rect x="105.5" y="309.5" width="645" height="362" stroke="url(#stroke2)" stroke-width="1.33333" stroke-miterlimit="8" fill="#FFFFFF"/><path d="M105.5 688.196C105.5 687.812 105.811 687.5 106.196 687.5L1866.8 687.5C1867.19 687.5 1867.5 687.812 1867.5 688.196L1867.5 1048.8C1867.5 1049.19 1867.19 1049.5 1866.8 1049.5L106.196 1049.5C105.811 1049.5 105.5 1049.19 105.5 1048.8Z" stroke="url(#stroke3)" stroke-width="1.33333" stroke-miterlimit="8" fill="#FFFFFF" fill-rule="evenodd"/><path d="M548.5 87.8928C548.5 85.4668 550.467 83.5001 552.893 83.5001L973.107 83.5001C975.533 83.5001 977.5 85.4668 977.5 87.8928L977.5 287.107C977.5 289.533 975.533 291.5 973.107 291.5L552.893 291.5C550.467 291.5 548.5 289.533 548.5 287.107Z" stroke="url(#stroke4)" stroke-width="1.33333" stroke-miterlimit="8" fill="#FFFFFF" fill-rule="evenodd"/><path d="M994.5 87.8929C994.5 85.4668 996.467 83.5001 998.893 83.5001L1418.11 83.5001C1420.53 83.5001 1422.5 85.4668 1422.5 87.8929L1422.5 287.107C1422.5 289.533 1420.53 291.5 1418.11 291.5L998.893 291.5C996.467 291.5 994.5 289.533 994.5 287.107Z" stroke="url(#stroke5)" stroke-width="1.33333" stroke-miterlimit="8" fill="#FFFFFF" fill-rule="evenodd"/><path d="M1439.5 87.8929C1439.5 85.4668 1441.47 83.5001 1443.89 83.5001L1863.11 83.5001C1865.53 83.5001 1867.5 85.4668 1867.5 87.8929L1867.5 287.107C1867.5 289.533 1865.53 291.5 1863.11 291.5L1443.89 291.5C1441.47 291.5 1439.5 289.533 1439.5 287.107Z" stroke="url(#stroke6)" stroke-width="1.33333" stroke-miterlimit="8" fill="#FFFFFF" fill-rule="evenodd"/><path d="M1439.5 311.585C1439.5 310.434 1440.43 309.5 1441.59 309.5L1864.41 309.5C1865.57 309.5 1866.5 310.434 1866.5 311.585L1866.5 669.415C1866.5 670.567 1865.57 671.5 1864.41 671.5L1441.59 671.5C1440.43 671.5 1439.5 670.567 1439.5 669.415Z" stroke="url(#stroke7)" stroke-width="1.33333" stroke-miterlimit="8" fill="#FFFFFF" fill-rule="evenodd"/><rect x="767.5" y="309.5" width="655" height="362" stroke="url(#stroke8)" stroke-width="1.33333" stroke-miterlimit="8" fill="#FFFFFF"/></g></svg>